<svg width="110" height="29" viewBox="0 0 110 29" fill="none" xmlns="http://www.w3.org/2000/svg">
<path d="M8.914 28.85C6.35267 28.85 4.29 28.476 2.726 27.728C1.18467 26.9573 0.414 25.892 0.414 24.532C0.414 24.0333 0.538667 23.5687 0.788 23.138C1.06 22.6847 1.42267 22.322 1.876 22.05C2.57867 23.4327 3.53067 24.498 4.732 25.246C5.956 25.9713 7.282 26.334 8.71 26.334C10.6593 26.334 12.2233 25.994 13.402 25.314C14.5807 24.634 15.17 23.6593 15.17 22.39C15.17 21.7553 14.932 21.2 14.456 20.724C14.0027 20.248 13.4133 19.8513 12.688 19.534C11.9853 19.194 11.022 18.7973 9.798 18.344C8.12067 17.732 6.76067 17.154 5.718 16.61C4.698 16.066 3.814 15.3407 3.066 14.434C2.318 13.5047 1.944 12.36 1.944 11C1.944 9.52667 2.44267 8.212 3.44 7.056C4.46 5.87733 5.87667 4.95933 7.69 4.302C9.526 3.64467 11.634 3.316 14.014 3.316C15.3967 3.316 16.632 3.46333 17.72 3.758C18.8307 4.03 19.692 4.41533 20.304 4.914C20.9387 5.41267 21.256 5.99067 21.256 6.648C21.256 7.6 20.9387 8.33667 20.304 8.858C19.692 9.35667 18.876 9.606 17.856 9.606C16.8133 9.606 15.9407 9.3 15.238 8.688C14.5353 8.05333 14.0027 7.13533 13.64 5.934C11.3507 6.206 9.56 6.76133 8.268 7.6C6.976 8.416 6.33 9.39067 6.33 10.524C6.33 11.1133 6.55667 11.6347 7.01 12.088C7.46333 12.5187 8.03 12.8927 8.71 13.21C9.39 13.5047 10.3533 13.89 11.6 14.366C13.2547 14.9553 14.6147 15.522 15.68 16.066C16.7453 16.61 17.652 17.3353 18.4 18.242C19.1707 19.1487 19.556 20.2707 19.556 21.608C19.556 22.9227 19.1367 24.1353 18.298 25.246C17.482 26.334 16.2693 27.2067 14.66 27.864C13.0733 28.5213 11.158 28.85 8.914 28.85ZM28.1519 28.85C27.3812 28.85 26.8032 28.6573 26.4179 28.272C26.0326 27.8867 25.8399 27.2747 25.8399 26.436C25.8399 25.5067 26.0552 23.852 26.4859 21.472C26.9392 19.092 27.6986 15.5107 28.7639 10.728L27.2679 9.028C27.8119 8.59733 28.4352 8.25733 29.1379 8.008C29.8632 7.736 30.5206 7.6 31.1099 7.6C31.7899 7.6 32.2659 7.74733 32.5379 8.042C32.8326 8.314 32.9799 8.79 32.9799 9.47C32.9799 9.58333 32.9119 9.92333 32.7759 10.49C32.6626 11.0567 32.5152 11.6913 32.3339 12.394C31.6312 15.2727 31.0419 17.8793 30.5659 20.214C30.1126 22.5487 29.8859 24.5207 29.8859 26.13C29.8859 26.9913 30.0899 27.592 30.4979 27.932C29.7499 28.544 28.9679 28.85 28.1519 28.85ZM31.1779 4.71C30.4526 4.71 29.8746 4.54 29.4439 4.2C29.0132 3.83733 28.7979 3.36133 28.7979 2.772C28.7979 2.31867 28.9226 1.89933 29.1719 1.514C29.4439 1.12866 29.8066 0.822665 30.2599 0.595998C30.7132 0.346665 31.2346 0.221999 31.8239 0.221999C32.5719 0.221999 33.1499 0.403332 33.5579 0.765998C33.9886 1.106 34.2039 1.55933 34.2039 2.126C34.2039 2.85133 33.9206 3.46333 33.3539 3.962C32.7872 4.46067 32.0619 4.71 31.1779 4.71ZM39.2935 24.702L48.2355 11.986L52.8935 11.136L42.8975 25.416L39.2935 24.702ZM49.4595 28.85C48.1902 28.85 47.0002 28.714 45.8895 28.442C44.8015 28.17 43.4415 27.7393 41.8095 27.15C41.2429 27.6713 40.7102 28.0453 40.2115 28.272C39.7355 28.4987 39.2142 28.612 38.6475 28.612C38.0355 28.612 37.5482 28.408 37.1855 28C36.8455 27.6147 36.6755 27.1387 36.6755 26.572C36.6755 26.0733 36.8229 25.5973 37.1175 25.144C37.4122 24.668 37.8542 24.2827 38.4435 23.988C39.0555 23.6933 39.7922 23.546 40.6535 23.546C41.1069 23.546 41.6735 23.6367 42.3535 23.818C43.0335 23.9767 43.8835 24.2147 44.9035 24.532C46.0595 24.8947 46.9775 25.1667 47.6575 25.348C48.3375 25.5067 48.9382 25.586 49.4595 25.586L52.8595 23.784C53.3355 24.5773 53.5735 25.2913 53.5735 25.926C53.5735 26.47 53.3809 26.9687 52.9955 27.422C52.6329 27.8753 52.1342 28.2267 51.4995 28.476C50.8875 28.7253 50.2075 28.85 49.4595 28.85ZM46.4675 12.802C44.6089 12.7793 43.1355 12.6547 42.0475 12.428C40.9595 12.2013 40.1549 11.8387 39.6335 11.34C39.1349 10.8413 38.8855 10.1613 38.8855 9.3C38.8855 8.892 39.0102 8.26867 39.2595 7.43C40.7329 8.042 42.4555 8.60867 44.4275 9.13C46.4222 9.65133 47.9522 9.93467 49.0175 9.98C49.3349 9.27733 49.7995 8.71067 50.4115 8.28C51.0235 7.82667 51.6582 7.6 52.3155 7.6C53.0409 7.6 53.6075 7.78133 54.0155 8.144C54.4462 8.484 54.6615 8.96 54.6615 9.572C54.6615 10.6373 54.0155 11.442 52.7235 11.986C51.4315 12.53 49.3462 12.802 46.4675 12.802ZM59.7467 24.702L68.6887 11.986L73.3467 11.136L63.3507 25.416L59.7467 24.702ZM69.9127 28.85C68.6433 28.85 67.4533 28.714 66.3427 28.442C65.2547 28.17 63.8947 27.7393 62.2627 27.15C61.696 27.6713 61.1633 28.0453 60.6647 28.272C60.1887 28.4987 59.6673 28.612 59.1007 28.612C58.4887 28.612 58.0013 28.408 57.6387 28C57.2987 27.6147 57.1287 27.1387 57.1287 26.572C57.1287 26.0733 57.276 25.5973 57.5707 25.144C57.8653 24.668 58.3073 24.2827 58.8967 23.988C59.5087 23.6933 60.2453 23.546 61.1067 23.546C61.56 23.546 62.1267 23.6367 62.8067 23.818C63.4867 23.9767 64.3367 24.2147 65.3567 24.532C66.5127 24.8947 67.4307 25.1667 68.1107 25.348C68.7907 25.5067 69.3913 25.586 69.9127 25.586L73.3127 23.784C73.7887 24.5773 74.0267 25.2913 74.0267 25.926C74.0267 26.47 73.834 26.9687 73.4487 27.422C73.086 27.8753 72.5873 28.2267 71.9527 28.476C71.3407 28.7253 70.6607 28.85 69.9127 28.85ZM66.9207 12.802C65.062 12.7793 63.5887 12.6547 62.5007 12.428C61.4127 12.2013 60.608 11.8387 60.0867 11.34C59.588 10.8413 59.3387 10.1613 59.3387 9.3C59.3387 8.892 59.4633 8.26867 59.7127 7.43C61.186 8.042 62.9087 8.60867 64.8807 9.13C66.8753 9.65133 68.4053 9.93467 69.4707 9.98C69.788 9.27733 70.2527 8.71067 70.8647 8.28C71.4767 7.82667 72.1113 7.6 72.7687 7.6C73.494 7.6 74.0607 7.78133 74.4687 8.144C74.8993 8.484 75.1147 8.96 75.1147 9.572C75.1147 10.6373 74.4687 11.442 73.1767 11.986C71.8847 12.53 69.7993 12.802 66.9207 12.802ZM81.9338 28.85C81.2538 28.85 80.7324 28.6233 80.3698 28.17C80.0071 27.7393 79.8258 27.0707 79.8258 26.164C79.8258 25.28 80.0751 23.172 80.5738 19.84C81.0724 16.4853 81.6391 12.938 82.2738 9.198C82.4098 8.40467 82.5458 7.64533 82.6818 6.92C82.8178 6.172 82.9424 5.46933 83.0558 4.812L81.5598 3.112C82.0811 2.65867 82.7044 2.30733 83.4298 2.058C84.1778 1.786 84.8578 1.65 85.4698 1.65C86.1044 1.65 86.5578 1.79733 86.8298 2.092C87.1018 2.364 87.2378 2.84 87.2378 3.52C87.2378 3.81467 87.1471 4.438 86.9658 5.39C86.7844 6.342 86.5691 7.40733 86.3198 8.586C85.5718 12.2353 84.9598 15.4767 84.4838 18.31C84.0304 21.1207 83.8038 23.6253 83.8038 25.824C83.8038 26.2547 83.8604 26.6627 83.9738 27.048C84.1098 27.4107 84.2798 27.694 84.4838 27.898C84.1438 28.1927 83.7584 28.4193 83.3278 28.578C82.8971 28.7593 82.4324 28.85 81.9338 28.85ZM99.5118 28.85C97.1091 28.85 95.2278 28.1133 93.8678 26.64C92.5078 25.1667 91.8278 23.138 91.8278 20.554C91.8278 18.106 92.3604 15.896 93.4258 13.924C94.4911 11.952 95.9644 10.4107 97.8458 9.3C99.7271 8.16667 101.824 7.6 104.136 7.6C105.926 7.6 107.32 8.03067 108.318 8.892C109.338 9.75333 109.848 10.9433 109.848 12.462C109.848 14.0713 109.27 15.454 108.114 16.61C106.958 17.7433 105.269 18.616 103.048 19.228C100.849 19.8173 98.1858 20.112 95.0578 20.112L95.4658 18.208C98.8431 18.2307 101.461 17.732 103.32 16.712C105.201 15.6693 106.142 14.2187 106.142 12.36C106.142 11.5667 105.904 10.932 105.428 10.456C104.952 9.98 104.328 9.742 103.558 9.742C102.22 9.742 100.974 10.2407 99.8178 11.238C98.6618 12.2127 97.7438 13.55 97.0638 15.25C96.3838 16.9273 96.0438 18.7633 96.0438 20.758C96.0438 22.5713 96.3838 23.9993 97.0638 25.042C97.7438 26.062 98.6731 26.572 99.8518 26.572C101.325 26.572 102.526 26.1073 103.456 25.178C104.385 24.2487 104.895 23.0133 104.986 21.472C105.87 21.472 106.55 21.642 107.026 21.982C107.502 22.2993 107.74 22.8093 107.74 23.512C107.74 24.4187 107.377 25.2913 106.652 26.13C105.926 26.946 104.929 27.6033 103.66 28.102C102.413 28.6007 101.03 28.85 99.5118 28.85Z" fill="white"/>
</svg>
